<?xml version="1.0" encoding="iso-8859-1"?>
<!-- Generator: Adobe Illustrator 19.0.0, SVG Export Plug-In . SVG Version: 6.00 Build 0)  -->
<svg version="1.1" xmlns="http://www.w3.org/2000/svg" xmlns:xlink="http://www.w3.org/1999/xlink" x="0px" y="0px"
	 viewBox="0 0 512 512" style="enable-background:new 0 0 512 512;" xml:space="preserve">
<g id="_x32_5_x2C__Baby_x2C__pregnancy_x2C__pregnant_x2C__obstetrics_x2C__fetus">
	<g id="XMLID_18628_">
		<path id="XMLID_18629_" style="fill-rule:evenodd;clip-rule:evenodd;" d="M446.236,283.484
			c-8.132-42.716-2.757-59.373,3.827-79.831c3.658-11.368,7.738-24.003,9.905-43.307c2.363-21.076-4.475-40.577-16.097-57.771
			c-15.054-22.342-38.185-40.83-59.853-53.915c-22.145-12.213-44.601-22.005-65.282-22.624
			c-20.204-0.647-38.973,7.598-54.478,31.179l-5.938,9.116c-19.304,29.773-30.138,46.459-68.492,63.145
			c-38.354,16.659-66.24,37.707-87.344,64.412c-21.132,26.789-35.539,59.375-46.964,99.136
			c-9.651,37.679-1.068,74.653,19.585,105.973c17.476,26.451,43.504,48.879,74.514,64.327
			c31.008,15.477,66.972,23.975,104.143,22.512c54.338-2.139,111.404-25.522,159.663-79.382
			c20.655-23.046,31.714-39.029,36.13-56.476C453.974,332.531,451.891,313.172,446.236,283.484 M140.67,426.996l-0.056-0.057
			l-0.056-0.056c-1.209-1.239-2.335-2.505-3.404-3.799l-0.028-0.028l-1.211-1.52c-0.928-1.182-1.8-2.363-2.616-3.573l-0.056-0.057
			c-0.423-0.647-0.844-1.323-1.267-1.97v-0.029l-0.252-0.364l-0.112-0.225l-0.056-0.057l-0.086-0.141l-0.674-1.21l-0.028-0.028
			l-0.114-0.196l-0.112-0.197l-0.477-0.9l-0.056-0.141l-0.227-0.393l-0.084-0.142l-0.028-0.084l-0.112-0.197l-0.084-0.197
			l-0.112-0.197v-0.028l-0.198-0.422l-0.084-0.196l-0.028-0.056l-0.084-0.142l-0.084-0.225l-0.112-0.197l-0.028-0.112l-0.056-0.112
			l-0.084-0.197l-0.112-0.197l-0.056-0.169l-0.03-0.057l-0.085-0.196l-0.084-0.226l-0.085-0.197l-0.563,0.282l-0.562,0.253l0,0
			l-0.563,0.253l-0.563,0.226l-0.589,0.197l-0.563,0.196l-0.591,0.169l0,0l-0.563,0.169l0,0l-0.59,0.141l0,0l-0.591,0.142
			l-0.591,0.111l-0.591,0.113l0,0l-0.59,0.084l-0.591,0.057l0,0l-0.591,0.057l-0.591,0.027h-0.028l-0.591,0.028l0,0h-0.59h-0.62
			l-0.591-0.028l0,0l-0.619-0.027l0,0l-0.59-0.057h-0.028l-0.591-0.057l-0.62-0.084l0,0l-0.619-0.085l0,0l-0.592-0.084l0,0
			l-0.617-0.113l0,0l-0.62-0.141l-0.62-0.14l-0.619-0.142l0,0l-0.62-0.169l-0.618-0.168l-0.591-0.197l-0.62-0.196l-0.619-0.198
			l-0.618-0.225l-0.62-0.253l-0.619-0.226l0,0l-0.62-0.253l-0.619-0.281l0,0l-0.618-0.254l-0.592-0.31l-0.619-0.281l-0.62-0.31l0,0
			l-0.591-0.31l-0.618-0.338l-0.619-0.31l-0.591-0.366l-0.62-0.336l-0.59-0.366l-0.591-0.366l-0.619-0.394l-0.591-0.366l-0.59-0.394
			l-0.591-0.395l-0.591-0.422l-0.591-0.422l-0.591-0.423l-0.59-0.422l-0.563-0.45l-0.591-0.422l-0.562-0.45l-0.591-0.479
			l-0.563-0.449c-8.751-7.205-16.433-16.631-20.992-25.018c-5.178-9.482-6.443-18.148-1.547-22.285
			c2.871-2.42,7.57-3.012,14.408-0.984c32.64,9.65,37.199-15.338,37.678-19.051c-1.772-7.795-17.728-85.714,50.651-87.176h0.084
			h0.056h0.028h0.085l0,0h0.084l0.028-0.029h0.056h0.086l0,0h0.084h0.028h0.056h0.056h0.028h0.085h0.028h0.056h0.056h0.028h0.084
			l0,0h0.085h0.028h0.058h0.084l0,0h0.084h0.028h0.056h0.056h0.028h0.084h0.028h0.028h0.085l0,0h0.084h0.028h0.056l0.311,0.029
			h0.028h0.056h0.253h0.084c0.816,0.027,1.604,0.056,2.364,0.111l0.676,0.084h0.112h0.114l0.112,0.029h0.112l0.112,0.027h0.112
			h0.112l0.112,0.028h0.114l0.112,0.028l0.533,0.057l0.227-0.365l0,0l0.225-0.395l0,0l0.225-0.395l0,0l0.254-0.422h0.028
			l0.252-0.422l0.028-0.029l0.281-0.422l0,0l0.311-0.449l0,0l0.309-0.45v-0.028l0.339-0.45h0.028l0.337-0.479l0,0l0.367-0.449
			v-0.028l0.393-0.45v-0.027l0.395-0.451l0.028-0.027l0.393-0.451h0.028l0.423-0.479l0,0l0.449-0.449l0.028-0.029l0.451-0.422
			v-0.027l0.478-0.422v-0.028l0.507-0.423l0,0l0.507-0.422h0.028l0.505-0.422h0.028l0.535-0.394l0,0l0.563-0.366v-0.027l0.592-0.338
			v-0.028l0.589-0.31v-0.028l0.62-0.309l0,0l0.619-0.311l0,0l0.647-0.252l0,0c0.647-0.281,1.323-0.479,2.025-0.648h0.028
			l0.676-0.169h0.028l0.704-0.113l0,0l0.732-0.084h0.028l0.732-0.057l0,0h0.76h0.028l0.76,0.029h0.028l0.788,0.056l0,0l0.816,0.112
			l0,0l0.844,0.17l0,0l0.844,0.195l0,0l0.846,0.254h0.028l0.873,0.311l0,0l0.872,0.338l0.028,0.027l0.9,0.395l0,0l0.928,0.449v0.028
			l0.928,0.507l0,0l0.958,0.591l0,0l0.957,0.618h0.028l0.957,0.704h0.028l0.984,0.76l0,0l1.015,0.845l0,0l1.041,0.871v0.029
			l1.041,0.928v0.029l1.07,1.013l0,0l1.068,1.125l0,0l1.099,1.153l0,0l1.097,1.268l0,0l1.125,1.322l0,0l1.126,1.406l0,0l1.153,1.492
			l0,0l1.155,1.576l0,0l1.181,1.631l1.211,1.744c26.112,0,38.326,14.689,44.516,22.146l0.704,0.872l0.168-0.28l0.169-0.311
			l0.198-0.281l0.197-0.31l0.196-0.28l0.225-0.282l0.227-0.253l0,0l0.225-0.281l0.225-0.254l0,0l0.254-0.254l0.225-0.252l0,0
			l0.253-0.254l0.281-0.226l0,0l0.254-0.253l0,0l0.281-0.225l0,0l0.282-0.225l0.281-0.226l0.281-0.197l0.311-0.225l0,0l0.281-0.197
			l0,0l0.309-0.196l0,0l0.31-0.197l0.309-0.196l0,0l0.311-0.197l0,0l0.337-0.169v-0.028l0.309-0.169l0,0l0.339-0.169l0,0
			l0.337-0.168l0,0l0.338-0.17l0,0l0.337-0.168l0.339-0.17l0.337-0.14l0,0l0.337-0.141l0,0l0.367-0.142v-0.027l0.337-0.141l0,0
			l0.367-0.113v-0.027l0.337-0.113l0,0l0.367-0.141l0,0l0.337-0.141l0.367-0.112l0,0l0.365-0.112l0,0l0.367-0.113l0,0l0.337-0.112
			l0.365-0.112l0.367-0.112l0.365-0.113l0,0l0.338-0.084l0.365-0.112l0,0l0.367-0.084l0,0l0.337-0.086l0,0l0.367-0.084l0.365-0.084
			l0.338-0.084l0,0l0.365-0.084l0.337-0.086l0,0l0.338-0.056l0,0l0.365-0.085l0,0l0.338-0.056l0.337-0.084l0.339-0.058l0.309-0.056
			l0.339-0.056l0.309-0.057l0.336-0.057l-0.028-0.027l-0.028-0.057l0,0l-0.028-0.027l-0.028-0.058v-0.028h-0.028l-0.028-0.056
			v-0.028h-0.028l-0.028-0.057v-0.056l-0.028-0.028l-0.028-0.056l0,0l-0.028-0.028l-0.028-0.057l-0.028-0.028l0,0l-0.028-0.056
			l-0.028-0.029l0,0l-0.028-0.056v-0.056h-0.028v-0.028l-0.028-0.056l0,0l-0.028-0.029l-0.028-0.057v-0.027h-0.028l-0.028-0.057
			v-0.027v-0.029l-0.028-0.027l-0.03-0.057l0,0l-0.028-0.027l-0.028-0.057l0,0v-0.057l-0.028-0.028l-0.028-0.028v-0.027
			l-0.028-0.029l-0.028-0.056l0,0v-0.056l-0.028-0.028l0,0l-0.028-0.056l-0.028-0.057l0,0v-0.029l-0.028-0.056l-0.028-0.028V264.8
			l-0.028-0.028v-0.027v-0.028l-0.028-0.028l-0.028-0.056l0,0v-0.057l-0.028-0.028l-0.028-0.028v-0.028l-0.028-0.057l0,0v-0.027
			l-0.028-0.057l-0.028-0.027l0,0v-0.057l-0.028-0.057l0,0l-0.028-0.057v-0.027v-0.029l-0.028-0.027l-0.028-0.057l0,0v-0.027
			l-0.028-0.057V263.9l-0.028-0.029v-0.027l-0.028-0.057l0,0v-0.057l-0.028-0.057l-0.03-0.084v-0.027l-0.056-0.113l0,0l-0.056-0.197
			l-0.028-0.111l0,0l-0.085-0.227v-0.056l-0.028-0.056l-0.141-0.563l0,0l-0.084-0.451h-0.028c-0.338-1.689-0.367-3.489-0.056-5.374
			v-0.028l0.028-0.085v-0.084l0,0l0.056-0.31l0.028-0.057v-0.057l0.028-0.111l0,0l0.028-0.17v-0.027l0.056-0.197l0.028-0.113v-0.027
			l0.028-0.084l0.085-0.311l0.028-0.112v-0.028l0.028-0.056l0.028-0.112l0,0l0.028-0.113l0.028-0.057v-0.056l0.028-0.084v-0.056
			l0.028-0.058l0.058-0.196l0.028-0.113h0.028l0.028-0.112l0.028-0.056v-0.057l0.028-0.112l0.028-0.028l0.028-0.057l0.028-0.113
			c0.505-1.434,0.732-5.374-0.197-8.92c-0.507-1.941-1.351-3.658-2.618-4.277l-0.76-0.422c-3.404-1.998-5.768-5.516-6.359-10.215
			c-0.507-4.164,0.423-9.369,3.404-15.335l1.547-2.87c6.389-10.891-4.783-41.533-4.811-41.619c-0.252-0.674-0.281-1.463-0.028-2.194
			c0.084-0.226,26.507-81.013,111.151-53.804c32.443,10.44,46.6,33.262,50.425,57.377l0.086,0.366
			c1.744,11.228,1.209,22.765-0.788,33.374c-1.971,10.607-5.375,20.344-9.427,28.055c-6.248,11.931-14.323,19.275-21.471,18.318
			c-17.361-2.307-9.23,66.466-9.202,66.662c0.056,0.45,0.028,0.9-0.112,1.322c-16.94,59.685-45.671,97.336-78.227,119.086
			c-25.719,17.194-53.802,24.482-80.422,24.876c-26.593,0.422-51.693-6.05-71.503-16.321
			C156.935,441.094,147.761,434.368,140.67,426.996z M367.024,135.556c-1.914,0.169-3.574-1.267-3.715-3.151
			c-0.168-1.914,1.238-3.574,3.152-3.715c0.112-0.028,36.102-3.912,48.596,33.6c0.592,1.8-0.393,3.741-2.195,4.361
			c-1.8,0.59-3.741-0.395-4.332-2.195C397.78,132.236,367.109,135.556,367.024,135.556z M210.006,436.45
			c-1.856-0.478-2.955-2.363-2.476-4.221c0.479-1.828,2.392-2.926,4.22-2.448c0.198,0.057,67.732,18.348,112.08-30.924
			c1.295-1.436,3.462-1.549,4.896-0.282c1.407,1.294,1.52,3.461,0.254,4.895C281.789,455.894,210.202,436.507,210.006,436.45z
			 M247.375,338.244c-1.181,1.52-3.348,1.772-4.839,0.591c-1.492-1.183-1.772-3.349-0.592-4.84
			c0.056-0.056,17.221-22.118,40.944-6.585c18.797,12.326,59.542-26.705,59.654-26.816c1.38-1.322,3.547-1.295,4.868,0.084
			c1.323,1.379,1.267,3.545-0.084,4.869c-0.141,0.111-44.881,42.939-68.237,27.66C260.685,321.135,247.403,338.217,247.375,338.244z
			 M196.948,149.598c1.886-0.254,3.631,1.041,3.911,2.926c0.255,1.885-1.041,3.658-2.925,3.912
			c-0.112,0.027-38.72,4.924-69.083,40.238c-16.293,18.939-16.884,31.488-17.53,45.756c-0.591,12.774-1.239,26.845-11.82,47.33
			c-0.873,1.689-2.954,2.336-4.643,1.491c-1.688-0.872-2.364-2.983-1.49-4.671c9.904-19.135,10.523-32.389,11.058-44.432
			c0.732-15.561,1.378-29.237,19.19-49.947C155.726,154.859,196.836,149.625,196.948,149.598z M145.51,422.099l0.056,0.085
			l0.058,0.056l0.056,0.057c6.528,6.781,15.11,13,25.128,18.206c18.881,9.793,42.857,15.955,68.237,15.59
			c25.382-0.395,52.17-7.345,76.681-23.722c31.179-20.852,58.755-57.067,75.243-114.584c-0.844-7.541-7.822-76.905,17.025-73.613
			c4.079,0.535,9.566-5.318,14.464-14.661c3.741-7.147,6.923-16.208,8.779-26.113c1.828-9.876,2.336-20.599,0.704-31.065
			l-0.028-0.31c-3.435-21.78-16.293-42.462-45.755-51.946c-72.656-23.327-98.77,39.256-102.118,48.316
			c2.055,5.966,11.086,33.937,3.855,46.261l-1.352,2.448c-2.308,4.615-3.039,8.47-2.672,11.396c0.281,2.42,1.379,4.137,2.927,5.065
			l0.393,0.225c3.348,1.661,5.263,5.037,6.219,8.724c1.239,4.756,0.844,10.412,0.084,12.775v0.057l-0.028,0.027l-0.028,0.085
			l-0.028,0.084v0.028v0.029l-0.028,0.056v0.028l-0.028,0.056l-0.028,0.056l0,0v0.085l-0.028,0.028v0.027l-0.028,0.058l0,0
			l-0.028,0.084v0.028v0.027l-0.028,0.057v0.028l-0.028,0.028v0.084l-0.028,0.057v0.028l-0.028,0.028v0.056v0.028l-0.028,0.057
			v0.056l0,0l-0.028,0.056v0.028v0.058l-0.028,0.056l0,0v0.056l-0.028,0.057l0,0v0.057v0.027l-0.028,0.057v0.057l-0.028,0.057v0.027
			v0.028l-0.028,0.085l0,0v0.056v0.028v0.027l-0.058,0.366l0,0l-0.028,0.056v0.058l0,0l-0.028,0.28l0,0
			c-0.057,0.845-0.028,1.604,0.142,2.336l0.028,0.057v0.027v0.058v0.028l0.028,0.056v0.056l0.028,0.029v0.084l0,0l0.028,0.084l0,0
			l0.028,0.085l0.028,0.028v0.027l0.028,0.084l0,0c0.112,0.338,0.225,0.648,0.393,0.958v0.028l0.084,0.168h0.028l0.114,0.254
			l0.028,0.057l0.028,0.027l0.028,0.057l0.028,0.027l0.084,0.141l0.028,0.029l0.056,0.084l0.056,0.084l0,0l0.028,0.084h0.028
			l0.056,0.084v0.029l0.056,0.057l0.028,0.027l0.028,0.057l0.028,0.028l0.028,0.056l0.028,0.028l0.028,0.056l0.058,0.029
			l0.028,0.027l0.112,0.17l0,0l0.056,0.084h0.028l0.056,0.084l0,0l0.056,0.084h0.028l0.056,0.086l0,0l0.056,0.056l0.028,0.028
			l0.056,0.056l0.028,0.028l0.028,0.057l0.056,0.027l0.028,0.057l0.058,0.028l0.028,0.057l0.028,0.028l0.028,0.027l0.056,0.057
			l0.028,0.027l0.056,0.057l0.028,0.028l0.056,0.056l0.028,0.029l0.056,0.057l0.085,0.084h0.028l0.056,0.084h0.028l0.056,0.057
			l0.028,0.027l0.056,0.057l0.028,0.029l0.058,0.056l0.028,0.028l0.056,0.027l0.028,0.028l0.028,0.028l0.028,0.027l0,0l0.056,0.029
			l0.028,0.027v0.028h0.028l0.168,0.142l0,0l0.028,0.027l0.028,0.028h0.028l0.028,0.028l0.028,0.027l0.028,0.028l0,0l0.056,0.028
			l0.114,0.084v0.028l0.112,0.085l0.028,0.028l0.057,0.028l0.028,0.027l0.056,0.028l0,0l0.028,0.028l0.168,0.112v0.028l0.057,0.027
			l0.338,0.254c2.081,1.407,4.671,2.617,7.484,3.602l0.141,0.057c11.313,3.996,26.198,4.783,32.08,4.502
			c1.885-0.084,3.517,1.379,3.602,3.292c0.084,1.886-1.38,3.518-3.293,3.602c-6.359,0.309-22.428-0.563-34.694-4.896l-0.17-0.057
			c-3.039-1.098-5.852-2.391-8.3-3.939c-1.183,0.057-3.294,0.197-5.77,0.535v0.027c-0.731,0.084-1.52,0.227-2.307,0.366
			l-0.112,0.028l-0.365,0.085h-0.056c-0.535,0.112-1.098,0.225-1.662,0.365l-0.225,0.057l-0.197,0.056l-1.239,0.338l0,0
			l-0.421,0.113l-0.056,0.027l-0.339,0.113l-0.14,0.027l-0.281,0.113l-0.788,0.281l-0.282,0.113l-0.112,0.027l-0.337,0.168h-0.028
			l-0.395,0.17h-0.028l-0.337,0.168l-0.084,0.028l-0.283,0.141l-0.141,0.085l-0.196,0.112l-0.197,0.085l-0.17,0.084l-0.225,0.141
			l-0.112,0.057l-0.281,0.196l-0.028,0.028l-0.338,0.197l-0.309,0.226l-0.028,0.028l-0.254,0.196l-0.085,0.056l-0.196,0.17
			l-0.141,0.111l-0.14,0.113l-0.141,0.169l-0.114,0.085l-0.253,0.253l-0.196,0.225l-0.028,0.028l-0.227,0.281v0.028l-0.028,0.028
			l-0.197,0.281l-0.14,0.225l-0.084,0.113l-0.028,0.057l-0.14,0.252v0.029l-0.085,0.141l-0.086,0.196l-0.028,0.028
			c-0.084,0.225-0.169,0.451-0.253,0.703l-0.028,0.17c-1.097,3.826-2.983,5.008-5.88,4.192c-2.027-0.535-3.575-2.421-5.77-5.065
			l-0.281-0.338l0,0l-0.283-0.338l-0.281-0.337l0,0l-0.281-0.338l0,0l-0.31-0.366l0,0l-0.309-0.338v-0.027l-0.311-0.366l0,0
			l-0.337-0.366l0,0l-0.337-0.394l0,0l-0.338-0.366l-0.028-0.027l-0.337-0.395l0,0l-0.367-0.394l0,0l-0.365-0.393l-0.028-0.029
			l-0.367-0.365l-0.028-0.028l-0.365-0.394l-0.028-0.028l-0.395-0.366l-0.028-0.027l-0.393-0.395l-0.028-0.027l-0.395-0.395
			l-0.028-0.027l-0.393-0.395l-0.056-0.028l-0.423-0.394l-0.028-0.028l-0.423-0.394l-0.028-0.028l-0.449-0.366l-0.028-0.056
			l-0.451-0.366l-0.056-0.027l-0.449-0.396l-0.058-0.028l-0.449-0.394l-0.056-0.028l-0.479-0.365l-0.056-0.057l-0.477-0.365
			l-0.058-0.057l-0.478-0.338l-0.056-0.057l-0.507-0.365l-0.084-0.028l-0.507-0.366l-0.056-0.056l-0.534-0.338l-0.056-0.056
			l-0.535-0.338l-0.084-0.057l-0.535-0.338l-0.084-0.027l-0.535-0.338l-0.084-0.057l-0.563-0.31l-0.085-0.056l-0.561-0.311
			l-0.086-0.056l-0.589-0.31l-0.084-0.057l-0.591-0.31l-0.112-0.028l-0.591-0.309l-0.112-0.027l-0.591-0.31l-0.112-0.027
			l-0.619-0.282l-0.112-0.056l-0.62-0.254l-0.141-0.057l-0.619-0.254l-0.141-0.056l-0.648-0.253l-0.14-0.057l-0.648-0.225
			l-0.141-0.057l-0.648-0.225l-0.14-0.028l-0.704-0.226l-0.141-0.027l-0.112-0.057l-0.732-0.197l-0.675-0.197l-0.168-0.056
			l-0.254-0.056l-1.52-0.366l-0.73-0.141l-0.17-0.028l-0.732-0.169l-0.196-0.028l-0.928-0.141l-0.76-0.141l-0.197-0.028l-0.76-0.085
			l-0.226-0.027l-0.76-0.084l-0.225-0.028l-1.013-0.085l-0.788-0.057l-0.253-0.027l-0.788-0.057h-0.254h-0.253
			c-0.984-0.057-1.971-0.057-2.983-0.057h-0.844l-0.085,0.029c-1.239,0.084-2.476-0.478-3.18-1.576
			c-4.25-6.473-8.105-10.975-11.593-13.957l-0.028-0.057c-0.9-0.76-1.8-1.436-2.674-2.055l-0.028-0.027
			c-0.59-0.395-1.181-0.76-1.744-1.069l-0.281-0.169l-0.395-0.197l-0.225-0.112l-0.956-0.422l-0.112-0.058l-0.143-0.056
			l-0.449-0.196h-0.028l-0.564-0.197l-0.479-0.141l-0.084-0.028l-0.562-0.142l-0.423-0.084l-0.197-0.027l-0.395-0.084l-0.141-0.029
			l-0.449-0.056l-0.507-0.028h-0.112h-0.084h-0.451h-0.281h-0.084h-0.423l-0.056,0.028l-0.479,0.028l-0.084,0.027l-0.393,0.057
			h-0.028l-0.395,0.084h-0.028l-0.365,0.084l-0.084,0.029l-0.451,0.141h-0.056l-0.14,0.057l-0.367,0.14h-0.056l-0.225,0.085
			l-0.309,0.141l-0.084,0.028l-0.395,0.197l-0.056,0.028l-0.339,0.168l-0.169,0.084l-0.196,0.142l-0.309,0.169l-0.056,0.027
			l-0.367,0.254l-0.056,0.028l-0.281,0.196l-0.17,0.113l-0.168,0.141l-0.253,0.197l-0.084,0.084l-0.311,0.253l-0.028,0.028
			l-0.281,0.253l-0.14,0.112l-0.169,0.17l-0.227,0.196l-0.056,0.058l-0.281,0.309h-0.028l-0.028,0.056l-0.311,0.338l-0.169,0.169
			l-0.168,0.197l-0.085,0.084l-0.225,0.31l0,0l-0.226,0.282l-0.085,0.111l-0.14,0.17l-0.141,0.196l-0.056,0.084
			c52.874,16.237,26.62,131.272,26.536,131.609c-0.395,1.884-2.224,3.066-4.108,2.644c-1.858-0.394-3.04-2.222-2.647-4.107
			c0.084-0.338,27.015-118.748-28.674-124.91c-0.816-0.085-1.66-0.17-2.532-0.198h-0.056h-0.085h-0.056l-0.028-0.028h-0.056h-0.056
			h-0.085c-0.874-0.027-1.774-0.027-2.702-0.027c-63.257,1.379-44.009,79.1-43.953,79.324c0.084,0.367,0.112,0.732,0.084,1.098
			c0,0.113-3.264,38.353-46.543,25.552c-4.36-1.296-6.894-1.296-8.019-0.366c-1.998,1.717-0.451,7.147,3.151,13.732
			c4.192,7.682,11.227,16.349,19.333,22.989l0.477,0.393l0.028,0.028l0.479,0.366l0.056,0.057l0.423,0.338l0.112,0.084l0.393,0.309
			l0.14,0.085l0.535,0.422l0.337,0.226l0.198,0.168l0.309,0.197l0.225,0.197l0.254,0.169l0.281,0.196l0.252,0.17l0.283,0.196
			l0.225,0.142l0.339,0.225l0.168,0.112l0.365,0.253l0.141,0.084l0.423,0.282l0.084,0.056l0.451,0.282l0.056,0.028l0.505,0.31h0.028
			l0.507,0.31l0,0l0.507,0.309l0.056,0.028l0.478,0.253l0.056,0.057l0.451,0.226l0.112,0.056l0.395,0.227l0.168,0.084l0.365,0.168
			l0.17,0.084l0.337,0.17l0.225,0.112l0.311,0.141l0.253,0.112l0.252,0.141l0.283,0.112l0.225,0.113l0.337,0.141l0.198,0.084
			l0.505,0.197l0.395,0.169l0.14,0.028l0.423,0.169l0.084,0.028l0.449,0.168l0.056,0.028l0.507,0.169h0.028l0.507,0.169l0,0
			l0.505,0.141l0.056,0.028l0.451,0.112l0.084,0.028l0.423,0.112l0.141,0.028l0.393,0.085l0.14,0.028l0.367,0.084l0.507,0.084
			l0.225,0.057l0.281,0.056l0.254,0.028l0.253,0.029l0.281,0.056l0.196,0.028l0.507,0.028l0.367,0.027l0.14,0.028l0.478,0.028h0.423
			h0.084h0.479h0.505l0,0h0.028l0.93-0.057h0.056l0.449-0.056h0.084l0.395-0.057h0.112l0.337-0.057l0.17-0.028l0.309-0.084
			l0.479-0.084l0.197-0.057l0.252-0.056l0.254-0.085l0.225-0.057l0.056-0.028c0.9-0.253,1.772-0.59,2.616-1.04l0.028-0.029
			l0.423-0.225l0,0l0.449-0.254c-0.732-3.039-1.069-6.135-1.013-9.229c0.141-10.017,4.503-19.98,13.929-29.012
			c1.492-1.408,3.152-2.842,4.952-4.25c35.484-27.858,29.21-77.412,29.21-77.552c-0.227-1.886,1.153-3.602,3.039-3.8
			c1.885-0.225,3.601,1.154,3.827,3.04c0,0.14,6.752,53.464-31.826,83.743c-1.576,1.237-3.067,2.504-4.447,3.826
			c-7.991,7.654-11.678,15.928-11.79,24.116c-0.056,3.151,0.393,6.303,1.323,9.427v0.056l0.028,0.028v0.028l0.028,0.056l0.028,0.142
			l0.141,0.393l0.028,0.112l0.084,0.254l0.14,0.394l0.112,0.395l0.114,0.31l0.028,0.084l0.168,0.394l0.056,0.197l0.085,0.169
			l0.028,0.056l0.281,0.732l0.17,0.365l0,0l0.168,0.395c1.576,3.602,3.743,7.146,6.443,10.608c0.591,0.731,1.183,1.463,1.829,2.195
			l0.056,0.084l0.058,0.084l0.084,0.057l0.056,0.084l0.252,0.31l0.085,0.057l0.112,0.169l0.084,0.056l0.056,0.085l0.058,0.056
			l0.028,0.028l0.056,0.057l0.056,0.085l0.085,0.084l0.056,0.056l0.084,0.085l0.056,0.085l0.056,0.056l0.085,0.084l0,0l0.056,0.085
			l0.084,0.056l0.058,0.084l0.085,0.086l0.056,0.056l0.084,0.084l0.056,0.057l0.085,0.112l0.056,0.057l0.084,0.057l0.056,0.084
			L145.51,422.099z"/>
	</g>
</g>
<g id="Layer_1">
</g>
</svg>
