<?xml version="1.0" encoding="UTF-8"?>
<!DOCTYPE svg PUBLIC "-//W3C//DTD SVG 1.1//EN" "http://www.w3.org/Graphics/SVG/1.1/DTD/svg11.dtd">
<!-- Creator: CorelDRAW -->
<svg xmlns="http://www.w3.org/2000/svg" xml:space="preserve" width="1.70666in" height="1.70666in" version="1.1" style="shape-rendering:geometricPrecision; text-rendering:geometricPrecision; image-rendering:optimizeQuality; fill-rule:evenodd; clip-rule:evenodd; fill:#dec1de"
viewBox="0 0 1706.66 1706.66"
 xmlns:xlink="http://www.w3.org/1999/xlink"
 xmlns:xodm="http://www.corel.com/coreldraw/odm/2003">
 <defs>
  <style type="text/css">
   <![CDATA[
    .fil1 {fill:#50707E}
    .fil2 {fill:#638A9B}
    .fil3 {fill:#89CFF0}
    .fil4 {fill:#9CC735}
    .fil6 {fill:#D6E3FF}
    .fil0 {fill:#FB505A}
    .fil5 {fill:#FFB800}
   ]]>
  </style>
 </defs>
 <g id="Layer_x0020_1">
  <metadata id="CorelCorpID_0Corel-Layer"/>
  <path class="fil0" d="M853.33 1706.65c-11.04,0 -20,-8.97 -20,-20l0 -97.85c0,-26.33 40,-26.32 40,0l0 97.85c0,11.04 -8.96,20 -20,20z"/>
  <path class="fil1" d="M1009.93 1608.81l-313.21 0c-8.39,0 -15.19,-8.97 -15.19,-20l0 -283c0,-12.2 343.59,-26.3 343.59,0l0 282.98c0.01,11.04 -6.79,20.02 -15.18,20.02z"/>
  <path class="fil2" d="M1134.28 1325.83l-561.91 0c-165.17,0 -299.52,-134.37 -299.52,-299.52l0 -866.54c0,-88.1 71.67,-159.76 159.76,-159.76l841.44 0c88.1,0 159.76,71.67 159.76,159.76l0 866.52c0,165.16 -134.37,299.54 -299.53,299.54z"/>
  <path class="fil3" d="M1230.57 885.56l-754.48 0c-11.04,0 -20,-8.97 -20,-20l0 -705.81c0,-11.04 8.96,-20 20,-20l754.48 0c11.04,0 20,8.96 20,20l0 705.81c0.02,11.04 -8.96,20 -20,20z"/>
  <path class="fil4" d="M1048.1 1210.49c-10.96,0 -20.01,-8.89 -20.01,-20l0 -223.62c0,-16.59 19.24,-25.97 32.31,-15.78l143.29 111.8c10.27,8.01 10.26,23.54 0,31.56l-143.29 111.82c-3.58,2.77 -7.92,4.22 -12.3,4.22z"/>
  <path class="fil5" d="M658.56 1210.49c-4.37,0 -8.72,-1.44 -12.3,-4.24l-143.29 -111.82c-10.26,-8 -10.24,-23.55 0,-31.56l143.29 -111.8c13.04,-10.17 32.3,-0.74 32.3,15.78l0 223.63c0,11.15 -9.08,20.02 -20,20.02z"/>
  <path class="fil6" d="M739.94 647.59c-9.06,0 -16.97,-6.08 -19.32,-14.82l-40.58 -151.47c-44.3,76.73 -15.09,63.56 -142.57,63.56 -26.33,0 -26.33,-40 0,-40l82.79 0 49.29 -85.36c8.85,-15.28 32.02,-12.41 36.64,4.82l40.58 151.47 34.6 -59.93c3.57,-6.18 10.17,-10 17.32,-10l123.13 0.01c26.33,0 26.32,40 0,40l-111.57 0 -52.97 91.74c-3.63,6.23 -10.27,10 -17.33,10z"/>
  <path class="fil0" d="M1050.1 617.44c-7.98,0 -13.46,-4.57 -18.89,-10l-61.31 -62.15c-41.18,-54.19 17.94,-128.18 80.19,-99.55 66.37,-30.52 126.01,54.52 74.3,106.29l-62.24 61.36c-3.58,2.69 -7.81,4.05 -12.07,4.05z"/>
 </g>
</svg>
