<?xml version="1.0" encoding="UTF-8" standalone="no"?> <svg width="43" height="43" viewBox="0 0 43 43" fill="none" xmlns="http://www.w3.org/2000/svg">
<rect x="0.398926" y="0.859863" width="42" height="42" rx="21" fill="#dec1de"/>
<path d="M25.8089 32.3599H19.2989C18.2489 32.3599 17.7239 32.3599 17.1989 32.2549C15.7289 31.8349 14.5739 30.6799 14.2589 29.3149C14.0489 28.6849 14.0489 28.1599 14.0489 27.1099C14.0489 26.4799 14.4689 26.0599 15.0989 26.0599C15.7289 26.0599 16.1489 26.4799 16.1489 27.1099C16.1489 27.9499 16.1489 28.4749 16.2539 28.6849C16.4639 29.4199 16.9889 29.9449 17.7239 30.1549C17.9339 30.2599 18.4589 30.2599 19.2989 30.2599H25.8089C27.3839 30.2599 28.2239 30.2599 28.6439 30.0499C29.0639 29.8399 29.3789 29.5249 29.5889 29.1049C29.7989 28.6849 29.7989 27.8449 29.7989 26.2699V17.4499C29.7989 15.8749 29.7989 15.0349 29.5889 14.6149C29.3789 14.1949 29.0639 13.8799 28.6439 13.6699C28.2239 13.4599 27.3839 13.4599 25.8089 13.4599H19.2989C18.4589 13.4599 17.9339 13.4599 17.7239 13.5649C16.9889 13.7749 16.4639 14.2999 16.2539 15.0349C16.1489 15.2449 16.1489 15.7699 16.1489 16.6099C16.1489 17.2399 15.7289 17.6599 15.0989 17.6599C14.4689 17.6599 14.0489 17.2399 14.0489 16.6099C14.0489 15.5599 14.0489 15.0349 14.1539 14.5099C14.5739 13.0399 15.7289 11.8849 17.1989 11.4649C17.7239 11.3599 18.2489 11.3599 19.2989 11.3599H25.8089C27.6989 11.3599 28.7489 11.3599 29.5889 11.7799C30.4289 12.1999 31.0589 12.8299 31.3739 13.5649C31.8989 14.5099 31.8989 15.5599 31.8989 17.4499V26.2699C31.8989 28.1599 31.8989 29.2099 31.4789 30.0499C31.0589 30.8899 30.4289 31.5199 29.6939 31.8349C28.7489 32.3599 27.6989 32.3599 25.8089 32.3599ZM21.3989 27.1099C21.0839 27.1099 20.8739 27.0049 20.6639 26.7949C20.2439 26.3749 20.2439 25.7449 20.6639 25.3249L23.0789 22.9099H11.9489C11.3189 22.9099 10.8989 22.4899 10.8989 21.8599C10.8989 21.2299 11.3189 20.8099 11.9489 20.8099H23.0789L20.6639 18.3949C20.2439 17.9749 20.2439 17.3449 20.6639 16.9249C21.0839 16.5049 21.7139 16.5049 22.1339 16.9249L26.3339 21.1249C26.4389 21.2299 26.5439 21.3349 26.5439 21.4399C26.5439 21.5449 26.6489 21.6499 26.6489 21.8599C26.6489 21.9649 26.6489 22.1749 26.5439 22.2799C26.5439 22.3849 26.4389 22.4899 26.3339 22.5949L22.1339 26.7949C21.9239 27.0049 21.7139 27.1099 21.3989 27.1099Z" fill="white"/>
</svg>
